<?xml version="1.0" standalone="no"?>
<!DOCTYPE svg PUBLIC "-//W3C//DTD SVG 20010904//EN"
 "http://www.w3.org/TR/2001/REC-SVG-20010904/DTD/svg10.dtd">
<svg version="1.0" xmlns="http://www.w3.org/2000/svg"
 width="600.000000pt" height="600.000000pt" viewBox="0 0 600.000000 600.000000"
 preserveAspectRatio="xMidYMid meet">
<metadata>
Created by potrace 1.11, written by Peter Selinger 2001-2013
</metadata>
<g transform="translate(0.000000,600.000000) scale(0.100000,-0.100000)"
fill="#000000" stroke="none">
<path d="M2730 5589 c-656 -68 -1286 -398 -1709 -896 -112 -132 -200 -255
-283 -393 -34 -58 -67 -110 -73 -116 -18 -18 -100 -192 -154 -324 -75 -184
-152 -502 -167 -690 -31 -403 12 -766 132 -1105 58 -163 109 -277 203 -449
169 -310 511 -671 844 -890 110 -73 366 -201 492 -246 324 -115 567 -160 880
-163 231 -2 327 6 535 44 110 21 359 91 385 109 10 7 80 32 100 36 17 3 177
81 255 125 41 23 91 50 111 60 19 10 41 25 49 33 7 9 18 16 24 16 10 1 44 25
217 156 67 51 331 317 429 434 148 174 323 468 410 685 76 189 125 364 160
575 31 180 38 506 16 700 -54 468 -227 903 -505 1274 -38 51 -78 99 -88 107
-10 8 -3 -4 15 -26 25 -31 29 -41 17 -43 -16 -4 -19 -13 -7 -27 4 -6 -11 10
-33 35 -80 90 -189 206 -239 255 -29 28 -44 44 -35 37 10 -8 23 -11 30 -6 8 5
10 3 4 -7 -6 -11 -5 -12 5 -2 11 10 23 5 59 -23 80 -63 -75 79 -184 168 -367
299 -842 497 -1330 553 -140 16 -425 18 -565 4z m2021 -676 c13 -16 12 -17 -3
-4 -17 13 -22 21 -14 21 2 0 10 -8 17 -17z m-85 -35 l29 -33 -32 29 c-31 28
-38 36 -30 36 2 0 16 -15 33 -32z m171 -197 c100 -114 107 -126 19 -33 -43 45
-81 81 -84 78 -2 -3 22 -34 54 -69 32 -34 74 -83 93 -107 27 -36 23 -33 -22
15 -31 33 -56 55 -57 48 0 -6 4 -14 9 -18 5 -3 24 -24 42 -48 17 -23 5 -13
-27 23 -32 36 -99 108 -148 160 l-91 95 108 -105 c59 -57 107 -100 107 -95 0
5 -48 59 -107 120 -60 60 -79 82 -43 47 92 -88 99 -77 10 15 l-75 76 73 -63
c40 -35 103 -98 139 -139z m-246 172 c13 -16 12 -17 -3 -4 -17 13 -22 21 -14
21 2 0 10 -8 17 -17z m362 -273 c48 -65 48 -65 5 -15 -23 27 -92 104 -152 170
l-108 120 103 -105 c57 -58 126 -135 152 -170z m-353 235 c13 -14 21 -25 18
-25 -2 0 -15 11 -28 25 -13 14 -21 25 -18 25 2 0 15 -11 28 -25z m176 -203
c102 -116 108 -128 14 -27 -47 50 -119 123 -160 164 l-75 73 77 -66 c42 -37
107 -102 144 -144z m-23 -9 c33 -37 70 -79 81 -93 l20 -25 -20 20 c-11 11 -79
81 -150 155 -79 82 -102 110 -61 73 38 -34 96 -92 130 -130z m89 -33 c33 -41
46 -59 28 -40 -210 227 -242 264 -166 190 42 -41 104 -109 138 -150z m-317
190 c10 -11 16 -20 13 -20 -3 0 -13 9 -23 20 -10 11 -16 20 -13 20 3 0 13 -9
23 -20z m257 -225 c49 -59 28 -39 -117 115 l-109 115 93 -90 c51 -49 111 -112
133 -140z m-139 85 c37 -35 67 -60 67 -55 0 5 -33 44 -72 85 -40 42 -28 31 27
-25 55 -55 115 -120 134 -145 25 -33 18 -28 -27 20 -34 36 -61 60 -62 53 0 -6
4 -14 9 -17 5 -4 28 -30 52 -59 23 -28 4 -11 -41 38 -46 50 -116 122 -155 160
-39 39 -55 57 -35 40 19 -16 65 -59 103 -95z m-182 73 c13 -16 12 -17 -3 -4
-17 13 -22 21 -14 21 2 0 10 -8 17 -17z m-1 -28 c13 -14 21 -25 18 -25 -2 0
-15 11 -28 25 -13 14 -21 25 -18 25 2 0 15 -11 28 -25z m243 -180 c60 -71 46
-57 -98 95 -81 85 -89 95 -31 40 42 -41 100 -102 129 -135z m-88 -1 c98 -112
111 -132 24 -39 -46 50 -113 119 -149 154 l-65 63 67 -57 c36 -31 92 -86 123
-121z m68 -9 c58 -69 30 -41 -98 95 -73 78 -77 83 -22 30 38 -36 91 -92 120
-125z m-292 158 c13 -16 12 -17 -3 -4 -10 7 -18 15 -18 17 0 8 8 3 21 -13z
m262 -228 c48 -59 45 -57 -108 105 -105 110 -108 114 -26 35 51 -49 111 -112
134 -140z m-1 73 c84 -97 47 -65 -57 50 -54 59 -75 85 -46 57 29 -27 75 -76
103 -107z m-261 125 c13 -16 12 -17 -3 -4 -17 13 -22 21 -14 21 2 0 10 -8 17
-17z m232 -198 c49 -60 41 -53 -93 90 -85 89 -90 96 -26 35 42 -41 96 -97 119
-125z m-223 160 c13 -14 21 -25 18 -25 -2 0 -15 11 -28 25 -13 14 -21 25 -18
25 2 0 15 -11 28 -25z m183 -150 c69 -80 38 -49 -78 75 -44 47 -58 65 -32 40
27 -25 76 -76 110 -115z m-3 -62 c0 -8 -13 5 -110 105 l-105 107 108 -105 c59
-57 107 -106 107 -107z m381 180 c13 -16 12 -17 -3 -4 -10 7 -18 15 -18 17 0
8 8 3 21 -13z m-501 -88 c52 -52 92 -95 90 -95 -3 0 -48 43 -100 95 -52 52
-92 95 -90 95 3 0 48 -43 100 -95z m81 -16 c39 -44 69 -79 66 -79 -3 0 -42 42
-88 93 -46 50 -76 86 -66 78 9 -7 49 -49 88 -92z m-205 39 l29 -33 -32 29
c-31 28 -38 36 -30 36 2 0 16 -15 33 -32z m635 15 c13 -16 12 -17 -3 -4 -17
13 -22 21 -14 21 2 0 10 -8 17 -17z m-76 -13 c10 -11 16 -20 13 -20 -3 0 -13
9 -23 20 -10 11 -16 20 -13 20 3 0 13 -9 23 -20z m26 3 c13 -16 12 -17 -3 -4
-17 13 -22 21 -14 21 2 0 10 -8 17 -17z m-76 -13 c10 -11 16 -20 13 -20 -3 0
-13 9 -23 20 -10 11 -16 20 -13 20 3 0 13 -9 23 -20z m26 3 c13 -16 12 -17 -3
-4 -10 7 -18 15 -18 17 0 8 8 3 21 -13z m-476 -83 c49 -49 87 -90 85 -90 -3 0
-46 41 -95 90 -49 50 -87 90 -85 90 3 0 46 -40 95 -90z m-15 -17 l75 -78 -77
75 c-43 41 -78 76 -78 77 0 8 11 -3 80 -74z m391 40 c13 -16 12 -17 -3 -4 -10
7 -18 15 -18 17 0 8 8 3 21 -13z m60 0 c13 -16 12 -17 -3 -4 -10 7 -18 15 -18
17 0 8 8 3 21 -13z m-106 -13 c10 -11 16 -20 13 -20 -3 0 -13 9 -23 20 -10 11
-16 20 -13 20 3 0 13 -9 23 -20z m30 0 c10 -11 16 -20 13 -20 -3 0 -13 9 -23
20 -10 11 -16 20 -13 20 3 0 13 -9 23 -20z m-479 -22 l29 -33 -32 29 c-31 28
-38 36 -30 36 2 0 16 -15 33 -32z m89 -18 c27 -27 47 -50 44 -50 -3 0 -27 23
-54 50 -27 28 -47 50 -44 50 3 0 27 -22 54 -50z m-50 -50 c38 -38 67 -70 64
-70 -2 0 -36 32 -74 70 -38 39 -67 70 -64 70 2 0 36 -31 74 -70z m160 30 c21
-22 37 -40 34 -40 -3 0 -23 18 -44 40 -21 22 -37 40 -34 40 3 0 23 -18 44 -40z
m236 3 c13 -16 12 -17 -3 -4 -17 13 -22 21 -14 21 2 0 10 -8 17 -17z m30 0
c13 -16 12 -17 -3 -4 -17 13 -22 21 -14 21 2 0 10 -8 17 -17z m-161 -18 c13
-14 21 -25 18 -25 -2 0 -15 11 -28 25 -13 14 -21 25 -18 25 2 0 15 -11 28 -25z
m25 5 c10 -11 16 -20 13 -20 -3 0 -13 9 -23 20 -10 11 -16 20 -13 20 3 0 13
-9 23 -20z m30 0 c10 -11 16 -20 13 -20 -3 0 -13 9 -23 20 -10 11 -16 20 -13
20 3 0 13 -9 23 -20z m26 3 c13 -16 12 -17 -3 -4 -17 13 -22 21 -14 21 2 0 10
-8 17 -17z m30 0 c13 -16 12 -17 -3 -4 -10 7 -18 15 -18 17 0 8 8 3 21 -13z
m-351 -80 c0 -8 -9 0 -50 45 l-45 47 48 -45 c26 -24 47 -45 47 -47z m35 27
c21 -22 37 -40 34 -40 -3 0 -23 18 -44 40 -21 22 -37 40 -34 40 3 0 23 -18 44
-40z m45 -15 c13 -14 21 -25 18 -25 -2 0 -15 11 -28 25 -13 14 -21 25 -18 25
2 0 15 -11 28 -25z m35 -5 c10 -11 16 -20 13 -20 -3 0 -13 9 -23 20 -10 11
-16 20 -13 20 3 0 13 -9 23 -20z m30 0 c10 -11 16 -20 13 -20 -3 0 -13 9 -23
20 -10 11 -16 20 -13 20 3 0 13 -9 23 -20z m30 0 c10 -11 16 -20 13 -20 -3 0
-13 9 -23 20 -10 11 -16 20 -13 20 3 0 13 -9 23 -20z m26 3 c13 -16 12 -17 -3
-4 -17 13 -22 21 -14 21 2 0 10 -8 17 -17z m-180 -70 c13 -16 12 -17 -3 -4
-17 13 -22 21 -14 21 2 0 10 -8 17 -17z m40 -10 c13 -16 12 -17 -3 -4 -10 7
-18 15 -18 17 0 8 8 3 21 -13z m-1274 -254 c108 -14 258 -67 355 -125 110 -65
247 -202 312 -312 221 -372 165 -835 -138 -1138 -353 -352 -920 -366 -1283
-30 -226 209 -331 494 -293 792 22 180 87 335 197 474 199 251 528 383 850
339z m-1886 -2216 c13 -16 12 -17 -3 -4 -17 13 -22 21 -14 21 2 0 10 -8 17
-17z m-140 -40 c13 -16 12 -17 -3 -4 -10 7 -18 15 -18 17 0 8 8 3 21 -13z
m170 0 c13 -16 12 -17 -3 -4 -10 7 -18 15 -18 17 0 8 8 3 21 -13z m-50 -10
c13 -16 12 -17 -3 -4 -10 7 -18 15 -18 17 0 8 8 3 21 -13z m-20 -10 c13 -16
12 -17 -3 -4 -17 13 -22 21 -14 21 2 0 10 -8 17 -17z m-181 -23 c12 -16 19
-30 16 -30 -2 0 -14 14 -26 30 -12 17 -19 30 -16 30 2 0 14 -13 26 -30z m131
13 c13 -16 12 -17 -3 -4 -10 7 -18 15 -18 17 0 8 8 3 21 -13z m-50 -10 c13
-16 12 -17 -3 -4 -17 13 -22 21 -14 21 2 0 10 -8 17 -17z m10 -50 c23 -32 36
-53 28 -46 -17 14 -83 103 -76 103 3 0 24 -26 48 -57z m140 40 c13 -16 12 -17
-3 -4 -17 13 -22 21 -14 21 2 0 10 -8 17 -17z m30 0 c13 -16 12 -17 -3 -4 -17
13 -22 21 -14 21 2 0 10 -8 17 -17z m-211 -23 c12 -16 19 -30 16 -30 -2 0 -14
14 -26 30 -12 17 -19 30 -16 30 2 0 14 -13 26 -30z m-16 -57 c32 -43 44 -63
28 -45 -35 40 -95 122 -89 122 3 0 30 -35 61 -77z m97 60 c13 -16 12 -17 -3
-4 -10 7 -18 15 -18 17 0 8 8 3 21 -13z m30 0 c13 -16 12 -17 -3 -4 -10 7 -18
15 -18 17 0 8 8 3 21 -13z m-50 -10 c13 -16 12 -17 -3 -4 -10 7 -18 15 -18 17
0 8 8 3 21 -13z m-126 -98 c36 -49 50 -72 31 -50 -35 39 -129 170 -109 150 6
-5 41 -50 78 -100z m71 58 c15 -20 23 -33 16 -29 -13 8 -56 66 -49 66 3 0 17
-17 33 -37z m-31 -35 c26 -35 39 -55 28 -45 -20 18 -87 107 -80 107 2 0 25
-28 52 -62z m-70 -63 c37 -49 56 -80 42 -67 -18 17 -26 20 -30 10 -2 -7 1 -20
7 -29 6 -8 -4 1 -21 20 -42 45 -123 160 -101 143 22 -17 34 3 17 26 -12 15
-11 15 2 2 9 -8 46 -55 84 -105z m46 58 c23 -32 36 -53 28 -46 -17 14 -83 103
-76 103 3 0 24 -26 48 -57z m144 37 c10 -11 16 -20 13 -20 -3 0 -13 9 -23 20
-10 11 -16 20 -13 20 3 0 13 -9 23 -20z m26 3 c13 -16 12 -17 -3 -4 -10 7 -18
15 -18 17 0 8 8 3 21 -13z m30 0 c13 -16 12 -17 -3 -4 -10 7 -18 15 -18 17 0
8 8 3 21 -13z m-106 -13 c10 -11 16 -20 13 -20 -3 0 -13 9 -23 20 -10 11 -16
20 -13 20 3 0 13 -9 23 -20z m86 -37 c13 -16 12 -17 -3 -4 -10 7 -18 15 -18
17 0 8 8 3 21 -13z m-76 -13 c10 -11 16 -20 13 -20 -3 0 -13 9 -23 20 -10 11
-16 20 -13 20 3 0 13 -9 23 -20z m26 3 c13 -16 12 -17 -3 -4 -10 7 -18 15 -18
17 0 8 8 3 21 -13z m30 0 c13 -16 12 -17 -3 -4 -10 7 -18 15 -18 17 0 8 8 3
21 -13z m-96 -63 c10 -11 16 -20 13 -20 -3 0 -13 9 -23 20 -10 11 -16 20 -13
20 3 0 13 -9 23 -20z m26 3 c13 -16 12 -17 -3 -4 -10 7 -18 15 -18 17 0 8 8 3
21 -13z m30 0 c13 -16 12 -17 -3 -4 -10 7 -18 15 -18 17 0 8 8 3 21 -13z"/>
<path d="M2900 3900 c-9 -6 -10 -10 -3 -10 6 0 15 5 18 10 8 12 4 12 -15 0z"/>
<path d="M2938 3893 c7 -3 16 -2 19 1 4 3 -2 6 -13 5 -11 0 -14 -3 -6 -6z"/>
<path d="M3080 3896 c0 -2 9 -6 20 -9 11 -3 18 -1 14 4 -5 9 -34 13 -34 5z"/>
<path d="M2858 3883 c7 -3 16 -2 19 1 4 3 -2 6 -13 5 -11 0 -14 -3 -6 -6z"/>
<path d="M2755 3870 c-3 -5 -1 -10 4 -10 6 0 11 5 11 10 0 6 -2 10 -4 10 -3 0
-8 -4 -11 -10z"/>
<path d="M2594 3805 c-4 -8 -10 -12 -15 -9 -5 3 -9 0 -9 -5 0 -18 19 -12 30 9
6 11 8 20 5 20 -3 0 -8 -7 -11 -15z"/>
<path d="M2415 3690 c-3 -6 1 -7 9 -4 18 7 21 14 7 14 -6 0 -13 -4 -16 -10z"/>
<path d="M3590 3666 c0 -2 7 -7 16 -10 8 -3 12 -2 9 4 -6 10 -25 14 -25 6z"/>
<path d="M3700 3561 c0 -6 4 -13 10 -16 6 -3 7 1 4 9 -7 18 -14 21 -14 7z"/>
<path d="M2096 3055 c-3 -8 -1 -15 4 -15 6 0 10 7 10 15 0 8 -2 15 -4 15 -2 0
-6 -7 -10 -15z"/>
<path d="M2956 3044 c-38 -37 -10 -104 44 -104 38 0 65 34 61 77 -2 22 -32 43
-61 43 -16 0 -36 -7 -44 -16z m74 -14 c11 -11 20 -24 20 -30 0 -5 -9 -19 -20
-30 -11 -11 -24 -20 -30 -20 -5 0 -19 9 -30 20 -11 11 -20 25 -20 30 0 6 9 19
20 30 11 11 25 20 30 20 6 0 19 -9 30 -20z"/>
<path d="M2898 2483 c6 -2 18 -2 25 0 6 3 1 5 -13 5 -14 0 -19 -2 -12 -5z"/>
<path d="M3018 2483 c6 -2 18 -2 25 0 6 3 1 5 -13 5 -14 0 -19 -2 -12 -5z"/>
<path d="M3118 2483 c7 -3 16 -2 19 1 4 3 -2 6 -13 5 -11 0 -14 -3 -6 -6z"/>
<path d="M2800 2449 c0 -5 5 -7 10 -4 6 3 10 8 10 11 0 2 -4 4 -10 4 -5 0 -10
-5 -10 -11z"/>
<path d="M3170 2449 c0 -5 5 -7 10 -4 6 3 10 8 10 11 0 2 -4 4 -10 4 -5 0 -10
-5 -10 -11z"/>
<path d="M2843 2413 c9 -2 23 -2 30 0 6 3 -1 5 -18 5 -16 0 -22 -2 -12 -5z"/>
<path d="M2933 2413 c9 -2 25 -2 35 0 9 3 1 5 -18 5 -19 0 -27 -2 -17 -5z"/>
<path d="M3018 2413 c12 -2 30 -2 40 0 9 3 -1 5 -23 4 -22 0 -30 -2 -17 -4z"/>
<path d="M3138 2413 c7 -3 16 -2 19 1 4 3 -2 6 -13 5 -11 0 -14 -3 -6 -6z"/>
<path d="M2810 2380 c0 -5 7 -7 15 -4 8 4 15 8 15 10 0 2 -7 4 -15 4 -8 0 -15
-4 -15 -10z"/>
<path d="M2908 2373 c7 -3 16 -2 19 1 4 3 -2 6 -13 5 -11 0 -14 -3 -6 -6z"/>
<path d="M2908 2343 c6 -2 18 -2 25 0 6 3 1 5 -13 5 -14 0 -19 -2 -12 -5z"/>
<path d="M3013 2343 c9 -2 23 -2 30 0 6 3 -1 5 -18 5 -16 0 -22 -2 -12 -5z"/>
<path d="M3068 2343 c7 -3 16 -2 19 1 4 3 -2 6 -13 5 -11 0 -14 -3 -6 -6z"/>
<path d="M4950 4715 c13 -14 26 -25 28 -25 3 0 -5 11 -18 25 -13 14 -26 25
-28 25 -3 0 5 -11 18 -25z"/>
</g>
</svg>
